<?xml version="1.0" encoding="UTF-8"?>
<!DOCTYPE svg PUBLIC "-//W3C//DTD SVG 1.1//EN" "http://www.w3.org/Graphics/SVG/1.1/DTD/svg11.dtd">
<!-- Creator: CorelDRAW 2018 (64-Bit Evaluation Version) -->
<svg xmlns="http://www.w3.org/2000/svg" xml:space="preserve" width="108.777mm" height="65.766mm" version="1.1" style="shape-rendering:geometricPrecision; text-rendering:geometricPrecision; image-rendering:optimizeQuality; fill-rule:evenodd; clip-rule:evenodd"
viewBox="0 0 10955.43 6623.61"
 xmlns:xlink="http://www.w3.org/1999/xlink">
 <defs>
  <style type="text/css">
   <![CDATA[
    .fil1 {fill:#EC6A6D}
    .fil9 {fill:#EC6A6D}
    .fil3 {fill:#68B6CD}
    .fil4 {fill:#F4C7A3}
    .fil7 {fill:#F4C7A3}
    .fil0 {fill:#ED2E38}
    .fil6 {fill:#8CCCD9}
    .fil5 {fill:#009EBA}
    .fil2 {fill:#D68F54}
    .fil8 {fill:#ED2E38;fill-rule:nonzero}
   ]]>
  </style>
 </defs>
 <g id="Layer_x0020_1">
  <metadata id="CorelCorpID_0Corel-Layer"/>
  <g id="_2761457613248">
   <g>
    <path class="fil0" d="M3879.4 1788.53c0,-369.82 227.1,-701.7 571.83,-835.62 344.74,-133.93 736.32,-42.42 985.99,230.42 249.67,-272.84 641.26,-364.35 985.99,-230.42 344.73,133.92 571.83,465.8 571.83,835.62l0 373.38c471.63,68.89 861.55,402.97 1001.96,858.44l173.27 0c99.6,0 192.14,-51.41 244.76,-135.99 52.61,-84.57 57.83,-190.31 13.82,-279.66l-229.71 -438.69 -239.79 -403.01 -249.91 -365.75 -260.08 -326.91 -270.28 -286.49 -280.52 -244.51 -273.88 -190.63 -283.04 -150.58 -292.24 -109.19 -301.45 -66.48 -310.72 -22.46 -310.71 22.46 -301.46 66.48 -292.23 109.19 -283.05 150.58 -273.88 190.63 -280.52 244.51 -270.28 286.49 -260.07 326.91 -249.92 365.75 -239.79 403.01 -229.71 438.69c-44.01,89.34 -38.8,195.09 13.83,279.66 52.61,84.57 145.16,135.99 244.76,135.99l173.26 0c140.42,-455.47 530.33,-789.55 1001.96,-858.44l0 -373.38z"/>
    <path class="fil1" d="M5437.23 147.3l-289.48 20.93 -280.95 61.96 -273.49 102.19 -266.8 141.93 -260.11 181.07 -269.07 234.52 -261.1 276.76 -252.9 317.9 -244.32 357.54 -235.38 395.63 -226.21 431.93c-21.49,43.62 -37.61,108.78 6.78,137.13 23.32,11.26 53.61,15.35 74.3,-7.08 125.66,-136.21 958.42,-2489.33 2778.75,-2652.39z"/>
    <path class="fil2" d="M4594.11 1473.72c-112.48,64.94 -181.76,184.95 -181.76,314.81l0 412.35c309.74,92.76 570.77,303.26 727.04,586.32l0 -998.67c0,-129.86 -69.28,-249.87 -181.75,-314.81 -112.49,-64.93 -251.06,-64.93 -363.53,0z"/>
    <path class="fil2" d="M5735.04 1788.53l0 998.67c156.28,-283.06 417.3,-493.56 727.04,-586.32l0 -412.35c0,-129.86 -69.28,-249.87 -181.76,-314.81 -112.47,-64.93 -251.04,-64.93 -363.52,0 -112.47,64.94 -181.76,184.95 -181.76,314.81z"/>
    <path class="fil2" d="M6514.67 3092.43c-68.83,-16.13 -140.33,-17.3 -209.65,-3.46 22.67,66.97 59.44,128.28 107.82,179.83 68.84,16.12 140.33,17.31 209.66,3.46 -22.68,-66.97 -59.44,-128.29 -107.83,-179.83z"/>
    <path class="fil3" d="M6622.49 3496.27c-69.33,-13.84 -140.82,-12.67 -209.66,3.45 -48.37,51.55 -85.14,112.87 -107.82,179.83 69.32,13.86 140.82,12.67 209.65,-3.45 48.38,-51.55 85.14,-112.86 107.83,-179.83z"/>
    <path class="fil2" d="M6816.49 3608.28c-46.64,53.12 -81.38,115.62 -101.82,183.29 20.45,67.67 55.18,130.17 101.82,183.29 46.66,-53.12 81.38,-115.62 101.83,-183.29 -20.46,-67.67 -55.17,-130.17 -101.83,-183.29z"/>
    <path class="fil3" d="M7010.5 3496.27c22.67,66.97 59.43,128.28 107.82,179.83 68.84,16.12 140.32,17.31 209.65,3.45 -22.67,-66.96 -59.44,-128.28 -107.82,-179.83 -68.84,-16.12 -140.33,-17.29 -209.65,-3.45z"/>
    <path class="fil2" d="M7010.5 3272.25c69.32,13.85 140.81,12.66 209.65,-3.46 48.37,-51.55 85.14,-112.86 107.82,-179.83 -69.33,-13.84 -140.81,-12.67 -209.65,3.46 -48.38,51.54 -85.14,112.86 -107.82,179.83z"/>
    <path class="fil3" d="M6816.49 3160.25c46.66,-53.12 81.38,-115.62 101.83,-183.3 -20.46,-67.67 -55.17,-130.17 -101.83,-183.29 -46.64,53.12 -81.38,115.62 -101.82,183.29 20.45,67.68 55.18,130.18 101.82,183.3z"/>
    <path class="fil2" d="M7010.92 3384.26c0,-107.37 -87.05,-194.42 -194.43,-194.42 -107.37,0 -194.42,87.05 -194.42,194.42 0,107.38 87.05,194.43 194.42,194.43 107.38,0 194.43,-87.05 194.43,-194.43z"/>
    <path class="fil2" d="M3863.94 3272.25c-22.67,-66.97 -59.43,-128.29 -107.82,-179.83 -68.83,-16.13 -140.33,-17.3 -209.65,-3.46 22.67,66.97 59.44,128.28 107.83,179.83 68.82,16.12 140.31,17.31 209.64,3.46z"/>
    <path class="fil3" d="M3863.94 3496.27c-69.33,-13.84 -140.82,-12.67 -209.64,3.45 -48.38,51.55 -85.15,112.87 -107.83,179.83 69.32,13.86 140.82,12.67 209.65,-3.45 48.38,-51.55 85.14,-112.86 107.82,-179.83z"/>
    <path class="fil2" d="M4057.95 3608.28c-46.65,53.12 -81.38,115.62 -101.83,183.29 20.46,67.67 55.18,130.17 101.83,183.29 46.65,-53.12 81.38,-115.62 101.82,-183.29 -20.45,-67.67 -55.17,-130.17 -101.82,-183.29z"/>
    <path class="fil2" d="M3863.52 3384.26c0,107.38 87.05,194.43 194.43,194.43 107.37,0 194.42,-87.05 194.43,-194.43 0,-107.37 -87.05,-194.42 -194.43,-194.42 -107.38,0 -194.43,87.05 -194.43,194.42z"/>
    <path class="fil3" d="M3956.12 2976.95c20.46,67.68 55.18,130.18 101.83,183.3 46.65,-53.12 81.38,-115.62 101.82,-183.3 -20.45,-67.67 -55.17,-130.17 -101.82,-183.29 -46.65,53.12 -81.38,115.62 -101.83,183.29z"/>
    <path class="fil2" d="M4359.77 3092.43c-48.38,51.54 -85.14,112.86 -107.82,179.83 69.33,13.85 140.81,12.66 209.65,-3.46 48.37,-51.55 85.14,-112.86 107.82,-179.83 -69.32,-13.84 -140.81,-12.67 -209.65,3.46z"/>
    <path class="fil3" d="M4461.6 3499.73c-68.84,-16.12 -140.32,-17.29 -209.65,-3.45 22.67,66.97 59.43,128.28 107.82,179.83 68.84,16.12 140.33,17.31 209.65,3.45 -22.67,-66.96 -59.44,-128.28 -107.82,-179.83z"/>
    <path class="fil1" d="M7194.99 2174.9l0 -304.47c0,-168.11 -46.91,-328.39 -130.51,-465.81 -86.2,-141.72 -211.41,-259.11 -364.31,-335.67 207.4,167.22 333.84,422.05 333.84,697.98l0 373.38c10.2,1.5 20.35,3.1 30.47,4.83 44.31,7.61 87.86,17.56 130.51,29.75z"/>
    <path class="fil1" d="M5513.02 1049.73c-213.08,-194.94 -506.47,-274.33 -786.62,-216.27 263.65,-14.53 526.06,88.07 710.81,289.94 24.01,-26.26 49.34,-50.82 75.81,-73.66z"/>
    <path class="fil4" d="M4562 1921.42c0,-129.86 69.28,-249.86 181.75,-314.81 104.43,-60.28 231.34,-64.6 338.99,-12.95 -24.35,-26.26 -52.79,-49.11 -84.7,-67.54 -112.48,-64.93 -251.04,-64.93 -363.52,0 -112.48,64.95 -181.76,184.95 -181.76,314.81l0 377.14c37.15,11.13 73.59,23.96 109.25,38.38l0 -335.03z"/>
    <path class="fil4" d="M6406.01 1594.58c-24.37,-26.25 -52.79,-49.11 -84.71,-67.53 -112.46,-64.93 -251.03,-64.93 -363.53,0 -112.46,64.94 -181.75,184.95 -181.75,314.81l0 876.5c32.15,-58.23 68.72,-94.1 109.25,-145.78l0 -650.23c0,-129.86 69.29,-249.86 181.75,-314.81 104.45,-60.29 231.37,-64.6 339,-12.95z"/>
    <path class="fil5" d="M5139.4 3384.26c0,-597.26 -484.19,-1081.45 -1081.46,-1081.46 -597.27,0 -1081.46,484.19 -1081.46,1081.46 0,597.27 484.19,1081.46 1081.45,1081.46 597.27,0.01 1081.46,-484.18 1081.47,-1081.46zm-1081.46 -697.18c385.04,0 697.18,312.15 697.18,697.19 0,385.04 -312.15,697.18 -697.18,697.18 -385.04,0 -697.19,-312.15 -697.18,-697.19 0,-385.04 312.14,-697.18 697.18,-697.18z"/>
    <path class="fil6" d="M3401.88 4035.86c-350.44,-438.43 -279.1,-1077.94 159.32,-1428.38 207.09,-165.53 459.05,-236.96 704.21,-220.05 -286.85,-60.33 -597.42,3.29 -844.26,200.59 -438.43,350.45 -509.77,989.95 -159.32,1428.38 184.94,231.37 450.38,360.52 724.27,379.38 -222.68,-46.81 -431.06,-168.31 -584.22,-359.92z"/>
    <path class="fil5" d="M7897.95 3384.26c0,-597.26 -484.19,-1081.45 -1081.46,-1081.46 -597.27,0 -1081.46,484.19 -1081.46,1081.46 0,597.27 484.19,1081.46 1081.45,1081.46 597.27,0.01 1081.46,-484.18 1081.47,-1081.46zm-1081.46 -697.18c385.04,0 697.18,312.15 697.18,697.19 0,385.04 -312.15,697.18 -697.18,697.18 -385.04,0 -697.19,-312.15 -697.18,-697.19 0,-385.04 312.14,-697.18 697.18,-697.18z"/>
    <path class="fil6" d="M6151.54 4036.19c-350.45,-438.43 -279.11,-1077.94 159.32,-1428.38 207.09,-165.53 459.04,-236.96 704.21,-220.05 -286.86,-60.33 -597.43,3.29 -844.27,200.59 -438.43,350.45 -509.76,989.95 -159.31,1428.38 184.93,231.38 450.37,360.52 724.26,379.38 -222.68,-46.81 -431.05,-168.31 -584.21,-359.92z"/>
    <path class="fil7" d="M3995.01 3496.62c62.06,34.77 -17.18,-75.71 17.57,-137.77 34.76,-62.04 170.36,-52.18 108.3,-86.94 -62.05,-34.77 -140.53,-12.64 -175.28,49.41 -34.77,62.07 -12.64,140.54 49.41,175.29z"/>
    <path class="fil7" d="M6729.83 3496.62c62.06,34.77 -17.19,-75.71 17.57,-137.77 34.75,-62.04 170.36,-52.18 108.3,-86.94 -62.06,-34.77 -140.53,-12.64 -175.29,49.41 -34.76,62.07 -12.64,140.54 49.42,175.29z"/>
   </g>
   <g>
    <path class="fil8" d="M73.6 5124.72c15.94,-7.93 38.33,-15.49 67.16,-22.69 28.82,-7.2 60.71,-10.81 95.68,-10.81 34.96,0 60.42,8.65 76.35,25.93 19.64,-8.64 46,-12.96 79.12,-12.96 69.93,0 115.92,39.61 138.01,118.87 24.53,92.21 65.63,373.9 123.27,845.08 66.24,-448.12 110.4,-716.48 132.49,-805.1 22.07,-88.61 51.51,-140.84 88.31,-156.69 24.54,-8.64 54.59,-9.37 90.17,-2.16 31.89,-8.65 65.62,-12.97 101.21,-12.97 90.76,0 149.34,18.01 175.71,54.02 26.38,36.04 39.56,98 39.56,185.88 0,2.88 -7.98,174.36 -23.91,514.41 -15.95,340.04 -23.93,585.71 -23.93,737 -46.61,27.38 -107.33,41.07 -182.16,41.07 -74.83,0 -113.47,-43.95 -115.91,-131.85l-14.72 -797.53c-89.55,560.51 -176.63,840.77 -261.27,840.77l-25.76 0c-35.58,0 -66.24,-20.9 -92,-62.68 -57.66,-89.34 -120.82,-353.73 -189.53,-793.21 -18.4,364.54 -27.59,665.69 -27.59,903.43 -44.17,25.94 -92.01,38.91 -143.54,38.91 -85.87,0 -130.64,-43.23 -134.31,-129.68l-46 -1305.44c3.68,-8.64 12.88,-19.09 27.59,-31.33 14.73,-12.26 30.06,-22.34 46.02,-30.26zm1679.91 848.32c0,-102.3 -48.44,-153.45 -145.35,-153.45 -55.2,0 -112.85,20.9 -172.96,62.67 -19.63,-23.05 -29.44,-51.52 -29.44,-85.37 0,-33.87 8.28,-68.81 24.84,-104.83 16.56,-36.02 38.64,-70.24 66.24,-102.66 27.61,-32.42 62.88,-59.08 105.8,-79.97 42.93,-20.9 88.32,-31.34 136.17,-31.34 95.67,0 169.28,35.31 220.8,105.91 51.53,70.6 77.29,171.46 77.29,302.58l0 494.94 40.47 110.23c-4.9,10.09 -11.65,22.34 -20.23,36.75 -8.59,14.4 -27.6,33.86 -57.03,58.34 -29.45,24.5 -60.12,36.75 -92,36.75 -79.74,0 -128.19,-51.88 -145.37,-155.61 -40.48,103.74 -96.6,155.61 -168.35,155.61 -71.76,0 -126.36,-26.3 -163.76,-78.89 -37.42,-52.59 -56.12,-121.39 -56.12,-206.4 0,-220.45 126.36,-337.17 379.03,-350.13l0 -15.14zm-149.03 285.3c0,56.2 16.56,92.21 49.67,108.06 7.36,4.33 15.34,6.49 23.92,6.49 24.54,0 49.69,-16.57 75.44,-49.7l0 -237.75c-99.36,27.36 -149.03,85 -149.03,172.91zm923.69 -285.3c0,-102.3 -48.45,-153.45 -145.37,-153.45 -55.19,0 -112.85,20.9 -172.95,62.67 -19.64,-23.05 -29.44,-51.52 -29.44,-85.37 0,-33.87 8.27,-68.81 24.83,-104.83 16.56,-36.02 38.64,-70.24 66.24,-102.66 27.61,-32.42 62.88,-59.08 105.81,-79.97 42.92,-20.9 88.33,-31.34 136.17,-31.34 95.67,0 169.28,35.31 220.79,105.91 51.53,70.6 77.29,171.46 77.29,302.58l0 494.94 40.48 110.23c-4.91,10.09 -11.65,22.34 -20.24,36.75 -8.59,14.4 -27.6,33.86 -57.03,58.34 -29.44,24.5 -60.11,36.75 -91.99,36.75 -79.74,0 -128.2,-51.88 -145.37,-155.61 -40.49,103.74 -96.6,155.61 -168.35,155.61 -71.77,0 -126.36,-26.3 -163.77,-78.89 -37.42,-52.59 -56.12,-121.39 -56.12,-206.4 0,-220.45 126.36,-337.17 379.05,-350.13l0 -15.14zm-149.05 285.3c0,56.2 16.56,92.21 49.67,108.06 7.38,4.33 15.34,6.49 23.94,6.49 24.53,0 49.67,-16.57 75.44,-49.7l0 -237.75c-99.38,27.36 -149.05,85 -149.05,172.91zm1256.73 -261.53c0,203.17 -38.04,358.42 -114.08,465.78 -76.05,107.34 -171.12,161.01 -285.19,161.01 -79.74,0 -151.5,-33.14 -215.29,-99.42 -34.34,-34.59 -61.95,-86.83 -82.8,-156.7 -20.85,-69.89 -31.28,-153.1 -31.28,-249.63 0,-145.52 23.32,-256.84 69.92,-333.93 46.61,-77.09 96.91,-123.56 150.88,-139.4 19.63,-70.61 60.72,-120.32 123.28,-149.13 28.2,-11.54 59.49,-17.3 93.84,-17.3 193.81,0 290.72,172.91 290.72,518.72zm-465.52 38.91c0,219.01 33.13,328.52 99.37,328.52 58.88,0 88.32,-103.02 88.32,-309.06 0,-100.88 -13.8,-171.84 -41.4,-212.89 -27.59,-41.07 -65.93,-61.61 -115,-61.61 -20.85,46.11 -31.28,131.13 -31.28,255.04zm1519.87 587.88c-100.59,0 -150.89,-85.01 -150.89,-255.04l0 -648.39 -40.48 -149.14c4.9,-7.21 11.95,-16.58 21.16,-28.1 9.21,-11.52 29.13,-26.65 59.8,-45.38 30.67,-18.74 62.55,-28.1 95.67,-28.1 77.29,0 123.89,57.64 139.84,172.91 60.11,-109.51 131.56,-164.27 214.37,-164.27 82.79,0 124.19,46.11 124.19,138.32 0,80.69 -14.72,146.97 -44.16,198.85 -26.98,46.11 -55.19,82.85 -84.63,110.23 -57.67,-60.52 -125.73,-99.44 -204.25,-116.72l0 572.74 40.49 110.23c-4.91,10.09 -11.66,22.34 -20.24,36.75 -8.58,14.4 -27.61,33.86 -57.04,58.34 -29.44,24.5 -60.71,36.75 -93.83,36.75zm1010.15 -1122.81c38.03,-20.9 74.53,-31.34 109.49,-31.34 34.96,0 65.62,18.72 92,56.19 26.37,37.48 39.56,79.97 39.56,127.53l0 728.36 40.48 110.23c-4.9,10.09 -11.65,22.34 -20.24,36.75 -8.58,14.4 -27.6,33.86 -57.03,58.34 -29.44,24.5 -60.72,36.75 -93.85,36.75 -74.82,0 -122.05,-48.27 -141.68,-144.81 -14.72,40.34 -37.42,74.57 -68.08,102.66 -30.67,28.1 -67.48,42.15 -110.39,42.15 -73.61,0 -133.41,-27.74 -179.41,-83.21 -46,-55.47 -69,-126.44 -69,-212.89l0 -607.33 -40.48 -149.14c17.16,-25.93 44.47,-49.35 81.88,-70.24 37.41,-20.9 73.89,-31.34 109.49,-31.34 35.56,0 66.23,18.72 91.99,56.19 25.76,37.48 38.64,79.97 38.64,127.53l0 525.2c0,61.96 8.28,105.91 24.84,131.85 16.56,25.93 53.67,39.62 111.32,41.06l0 -631.1 -42.32 -149.14c17.18,-25.93 44.78,-49.35 82.8,-70.24zm651.37 -126.44l0 211.8c50.3,-72.04 113.15,-108.07 188.59,-108.07 75.46,0 135.26,28.46 179.41,85.37 44.16,56.92 66.24,135.09 66.24,234.51l0 337.17c0,129.68 -40.48,243.5 -121.44,341.48 -80.95,97.98 -176.64,146.97 -287.04,146.97 -90.77,0 -164.68,-32.07 -221.72,-96.17 -57.03,-64.13 -85.57,-135.8 -85.57,-215.07l0 -765.11c0,-119.6 -9.81,-219.01 -29.44,-298.26l-11.03 -41.07c4.9,-7.2 11.95,-16.57 21.15,-28.09 9.21,-11.53 29.15,-27.03 59.8,-46.48 30.67,-19.45 62.56,-29.17 95.68,-29.17 96.91,0 145.36,90.05 145.36,270.17zm150.89 974.76l0 -397.69c0,-79.24 -11.05,-132.2 -33.14,-158.85 -22.08,-26.67 -61.33,-39.99 -117.76,-39.99l0 447.41c0,99.42 50.3,149.13 150.89,149.13zm1109.51 -352.3c0,203.17 -38.04,358.42 -114.08,465.78 -76.05,107.34 -171.12,161.01 -285.2,161.01 -79.74,0 -151.49,-33.14 -215.28,-99.42 -34.34,-34.59 -61.95,-86.83 -82.8,-156.7 -20.85,-69.89 -31.28,-153.1 -31.28,-249.63 0,-145.52 23.3,-256.84 69.92,-333.93 46.61,-77.09 96.91,-123.56 150.88,-139.4 19.63,-70.61 60.72,-120.32 123.28,-149.13 28.2,-11.54 59.49,-17.3 93.84,-17.3 193.81,0 290.72,172.91 290.72,518.72zm-465.52 38.91c0,219.01 33.12,328.52 99.37,328.52 58.88,0 88.32,-103.02 88.32,-309.06 0,-100.88 -13.8,-171.84 -41.4,-212.89 -27.6,-41.07 -65.93,-61.61 -115,-61.61 -20.85,46.11 -31.28,131.13 -31.28,255.04zm2132.58 332.84c0,70.6 7.36,123.19 22.09,157.78 -7.35,23.05 -27.91,45.03 -61.65,65.93 -33.73,20.89 -71.14,31.33 -112.24,31.33 -41.09,0 -72.99,-14.76 -95.67,-44.31 -22.71,-29.53 -34.06,-69.52 -34.06,-119.94l0 -548.98c0,-119.6 -9.8,-219.02 -29.44,-298.28l-11.03 -41.06c4.9,-7.21 11.95,-16.58 21.16,-28.1 9.2,-11.52 29.14,-26.65 59.8,-45.38 30.66,-18.74 62.55,-28.1 95.67,-28.1 71.15,0 115.92,48.99 134.33,146.96 41.7,-92.21 112.53,-138.32 212.52,-138.32 99.97,0 170.19,53.32 210.68,159.95 14.71,-44.67 40.48,-82.5 77.28,-113.48 36.81,-30.97 87.1,-46.47 150.88,-46.47 63.78,0 117.76,28.46 161.93,85.37 44.15,56.92 66.23,135.09 66.23,234.51l0 583.55 38.64 110.23c-4.9,10.09 -11.65,22.34 -20.23,36.75 -8.58,14.4 -27.29,33.86 -56.13,58.34 -28.82,24.5 -59.8,36.75 -92.92,36.75 -101.82,0 -152.71,-85.01 -152.71,-255.04l0 -417.14c0,-76.36 -11.05,-128.24 -33.13,-155.61 -22.08,-27.36 -60.72,-42.5 -115.92,-45.38l1.84 47.55 0 570.59c0,67.72 7.36,120.31 22.08,157.78 -3.68,7.21 -8.89,16.22 -15.64,27.02 -6.74,10.8 -24.84,25.21 -54.29,43.23 -29.44,18.01 -64.7,27.01 -105.79,27.01 -41.09,0 -72.99,-15.13 -95.68,-45.39 -22.7,-30.25 -34.04,-69.89 -34.04,-118.86l0 -507.92c0,-76.36 -11.05,-128.24 -33.12,-155.61 -22.09,-27.36 -62.57,-42.5 -121.45,-45.38l0 618.14zm1352.41 -395.53c0,-102.3 -48.44,-153.45 -145.35,-153.45 -55.2,0 -112.85,20.9 -172.97,62.67 -19.62,-23.05 -29.44,-51.52 -29.44,-85.37 0,-33.87 8.28,-68.81 24.85,-104.83 16.56,-36.02 38.63,-70.24 66.24,-102.66 27.6,-32.42 62.88,-59.08 105.79,-79.97 42.94,-20.9 88.33,-31.34 136.18,-31.34 95.67,0 169.27,35.31 220.8,105.91 51.53,70.6 77.29,171.46 77.29,302.58l0 494.94 40.47 110.23c-4.9,10.09 -11.65,22.34 -20.23,36.75 -8.59,14.4 -27.61,33.86 -57.04,58.34 -29.44,24.5 -60.11,36.75 -92,36.75 -79.74,0 -128.18,-51.88 -145.36,-155.61 -40.48,103.74 -96.6,155.61 -168.35,155.61 -71.76,0 -126.36,-26.3 -163.76,-78.89 -37.42,-52.59 -56.12,-121.39 -56.12,-206.4 0,-220.45 126.35,-337.17 379.03,-350.13l0 -15.14zm-149.03 285.3c0,56.2 16.56,92.21 49.67,108.06 7.36,4.33 15.33,6.49 23.92,6.49 24.53,0 49.69,-16.57 75.44,-49.7l0 -237.75c-99.36,27.36 -149.03,85 -149.03,172.91zm-6040.77 -261.53c0,203.17 -38.03,358.42 -114.08,465.78 -76.06,107.34 -171.12,161.01 -285.2,161.01 -79.74,0 -151.5,-33.14 -215.28,-99.42 -34.34,-34.59 -61.96,-86.83 -82.81,-156.7 -20.85,-69.89 -31.27,-153.1 -31.27,-249.63 0,-145.52 23.31,-256.84 69.92,-333.93 46.61,-77.09 96.91,-123.56 150.88,-139.4 19.62,-70.61 60.72,-120.32 123.28,-149.13 28.21,-11.54 59.48,-17.3 93.83,-17.3 193.82,0 290.73,172.91 290.73,518.72zm-465.52 38.91c0,219.01 33.12,328.52 99.36,328.52 58.88,0 88.32,-103.02 88.32,-309.06 0,-100.88 -13.79,-171.84 -41.39,-212.89 -27.6,-41.07 -65.93,-61.61 -115,-61.61 -20.85,46.11 -31.28,131.13 -31.28,255.04zm4014.91 332.84c0,70.6 7.35,123.19 22.07,157.78 -7.35,23.05 -27.89,45.03 -61.63,65.93 -33.74,20.89 -71.15,31.33 -112.26,31.33 -41.09,0 -72.98,-14.76 -95.67,-44.31 -22.69,-29.53 -34.04,-69.52 -34.04,-119.94l0 -548.98c0,-119.6 -9.81,-219.02 -29.44,-298.28l-11.05 -41.06c4.91,-7.21 11.96,-16.58 21.16,-28.1 9.21,-11.52 29.14,-26.65 59.8,-45.38 30.68,-18.74 62.56,-28.1 95.68,-28.1 71.14,0 115.93,48.99 134.32,146.96 41.71,-92.21 112.55,-138.32 212.52,-138.32 99.97,0 170.21,53.32 210.68,159.95 14.73,-44.67 40.5,-82.5 77.29,-113.48 36.81,-30.97 87.09,-46.47 150.89,-46.47 63.78,0 117.76,28.46 161.92,85.37 44.15,56.92 66.23,135.09 66.23,234.51l0 583.55 38.64 110.23c-4.9,10.09 -11.65,22.34 -20.23,36.75 -8.59,14.4 -27.3,33.86 -56.12,58.34 -28.83,24.5 -59.8,36.75 -92.92,36.75 -101.82,0 -152.72,-85.01 -152.72,-255.04l0 -417.14c0,-76.36 -11.05,-128.24 -33.14,-155.61 -22.07,-27.36 -60.71,-42.5 -115.9,-45.38l1.82 47.55 0 570.59c0,67.72 7.37,120.31 22.09,157.78 -3.68,7.21 -8.88,16.22 -15.64,27.02 -6.74,10.8 -24.84,25.21 -54.28,43.23 -29.44,18.01 -64.71,27.01 -105.8,27.01 -41.09,0 -72.98,-15.13 -95.69,-45.39 -22.68,-30.25 -34.03,-69.89 -34.03,-118.86l0 -507.92c0,-76.36 -11.05,-128.24 -33.12,-155.61 -22.09,-27.36 -62.56,-42.5 -121.44,-45.38l0 618.14z"/>
    <path class="fil9" d="M1087.11 6524.61c1.73,-227.09 13.18,-456.82 23.79,-683.18 8.01,-170.62 17.91,-342.21 23.82,-510.3 0,-31.89 -2.76,-106.89 -22.32,-133.65 -14.77,-15.52 -85.71,-18.43 -105.12,-18.43 -26.4,0 -52.71,2.98 -78.22,9.91l-20.07 5.44 -20.37 -4.13c-9.95,-2.01 -25.76,-4.36 -37.54,-2.53 -16.39,17.49 -33.49,77.36 -38.26,96.54 -20.79,83.4 -34.28,175.88 -48.25,260.77 -29.34,178.32 -56.16,357.17 -82.59,535.94l-27.98 189.3c3.24,-10.92 5.83,-20 7.57,-26.32 50.38,-182.28 83.78,-376.97 113.61,-563.59l12.68 -79.38 160.37 11.24 16.18 877.07c0.2,7.31 2.64,38.14 9.12,43.48 2.88,2.38 15.65,2.99 19,2.99 30.06,0 63.71,-2.56 94.56,-11.18zm-538.57 -113.88l-40.61 -331.92c-22.96,-187.67 -46.4,-375.63 -73.6,-562.73 -12.37,-85.07 -24.75,-187.21 -47.25,-269.97 -8.59,-31.59 -18.45,-54.09 -53.26,-54.09 -11.6,0 -32.88,0.74 -43.75,5.53l-57.41 25.26 -39.22 -42.52c-4.51,-1.04 -11.56,-1.24 -15.1,-1.24 -24.85,0 -50.24,2.16 -74.4,8.19 -15.49,3.87 -35,9 -49.36,16.13 -8.37,4.17 -16.27,9.24 -23.68,14.93l44.76 1270.38c1.35,38.17 8.36,44.95 46.55,44.95 19.48,0 38.02,-2.61 55.85,-7.9 1.43,-283.49 13.28,-568.11 27.57,-851.04l4 -79.14 158.24 -8.29 12.24 78.3c27.13,173.54 56.73,350.15 97.56,521.06 13.71,57.42 39.65,165.31 70.86,224.12zm1234.7 -440.58l0.02 383.14 -7.09 9.12 15.11 91.23c6.08,36.69 14.37,82.14 58.73,82.14 13.36,0 25.93,-8.21 35.82,-16.45 9.86,-8.2 29.65,-24.57 37.17,-34.95l-32.03 -87.25 0 -510.55c0,-81.49 -10.81,-182.84 -60.4,-250.81 -37.37,-51.19 -87.31,-69.85 -149.85,-69.85 -34.44,0 -66.77,7.41 -97.73,22.48 -29.32,14.26 -56.13,32.98 -77.36,57.93 -21.32,25.05 -39.57,52.48 -53.33,82.41 -3.12,6.82 -5.98,13.84 -8.41,21.01 33.94,-11.43 69.42,-18 106.18,-18 148.52,0 232.08,93.18 233.16,238.38zm-296.84 166.85c-52.55,40.32 -82.18,103.96 -82.18,201.31 0,52.94 8.43,111.32 39.85,155.48 22.83,32.11 53.54,41.99 92.2,41.99 35.27,0 60.68,-41.37 76.24,-75.26 -20.19,-1.1 -39.66,-6.64 -57.45,-16.41 -71.33,-35.84 -96.5,-109.61 -96.5,-185.77 0,-46.3 9.85,-86.75 27.84,-121.34zm1071.49 -166.85l0.01 383.15 -7.09 9.12 15.1 91.22c6.08,36.69 14.37,82.14 58.73,82.14 13.36,0 25.94,-8.21 35.82,-16.45 9.86,-8.2 29.65,-24.57 37.18,-34.95l-32.03 -87.25 0 -510.55c0,-81.49 -10.81,-182.84 -60.4,-250.81 -37.38,-51.19 -87.32,-69.85 -149.86,-69.85 -34.42,0 -66.78,7.41 -97.73,22.48 -29.32,14.26 -56.13,32.98 -77.36,57.93 -21.32,25.05 -39.56,52.48 -53.32,82.41 -3.13,6.82 -5.99,13.84 -8.41,21.01 33.93,-11.42 69.41,-18 106.17,-18 148.53,0 232.1,93.16 233.18,238.38zm-296.86 166.85c-52.55,40.33 -82.18,103.96 -82.18,201.31 0,52.94 8.44,111.32 39.85,155.48 22.83,32.11 53.54,41.99 92.2,41.99 35.27,0 60.68,-41.37 76.25,-75.26 -20.19,-1.1 -39.65,-6.64 -57.43,-16.4 -71.34,-35.84 -96.53,-109.62 -96.53,-185.78 0,-46.3 9.84,-86.73 27.83,-121.34zm886.59 -444.11c76.72,1.21 140.76,36.38 183.78,100.41 48.24,71.8 56.34,177.74 56.34,261.88 0,118.95 -0.71,396.9 -176.15,396.9 -184.78,0 -187.2,-290.65 -187.2,-416.35 0,-85.58 3.16,-210.32 38.43,-289.78 -28.51,21.98 -53.18,57.84 -68.65,83.41 -47.85,79.16 -57.25,198.33 -57.25,288.5 0,74.27 6.29,153.08 27.63,224.52 12.08,40.51 31.53,89.7 61.57,120.55 42.11,43.28 90.83,72.86 152.35,72.86 93.95,0 160.42,-49 213.53,-123.96 80.4,-113.5 97.91,-280.01 97.91,-415.01 0,-110.18 -10.19,-349.01 -123.47,-412.47 -24.34,-13.65 -51.76,-18.42 -79.42,-18.42 -20.03,0 -40.15,2.74 -58.88,10.07 -39.92,18.96 -61.78,49.45 -73.63,92.06l-6.9 24.83zm1809.59 108.07c6.5,-9.72 12.58,-19.62 18.28,-29.52 25.92,-45.02 32.45,-104.01 32.45,-155.02 0,-8.73 -1.47,-38.71 -8.92,-45.41 -4.75,-4.26 -21.74,-5.08 -27.45,-5.08 -63.81,0 -110.33,69.42 -137.36,118.69l-24.89 45.33c53.87,15.18 103.23,39.08 147.9,71zm-280.72 -101.08l-6.28 -45.48c-3.94,-28.44 -12.4,-97.11 -52.85,-97.11 -18.19,0 -34.44,5.77 -49.88,15.21 -7.91,4.82 -21.07,12.76 -30.06,19.47l31.61 116.5 0 660.1c0,34.23 4.08,141.24 39.69,162.3 6.74,4 15.71,4.91 23.37,4.91 14.45,0 26.86,-7.44 37.67,-16.45 9.86,-8.2 29.67,-24.58 37.17,-34.95l-32.04 -87.24 0 -697.63 1.6 0.36zm1151 784.49l-32.03 -87.22 0 -743.98c0,-28.46 -7.09,-53.61 -23.55,-76.98 -2.8,-3.98 -14.06,-18.9 -20.19,-18.9 -23.35,0 -47.02,9.4 -67.18,20.48 -8.46,4.65 -18.07,10.45 -27.04,17.12l32.09 113.06 0 716.74 7.45 36.62c6.66,32.8 15.79,74.48 55.6,74.48 14.45,0 26.87,-7.44 37.68,-16.45 9.86,-8.2 29.65,-24.57 37.16,-34.97zm-292.93 -52.4c-47.11,-9.9 -90.73,-31.56 -118.13,-74.49 -32.5,-50.88 -38.64,-120.12 -38.64,-179.11l0 -525.2c0,-28.64 -6.95,-54.13 -23.19,-77.77 -3.06,-4.46 -12.82,-18.11 -19.62,-18.11 -23.46,0 -46.47,8.9 -66.68,20.18 -8.58,4.8 -18.22,10.74 -27.17,17.54l30.8 113.45 0 619.04c0,56.76 11.84,112.31 48.77,156.82 29.81,35.95 65.21,51.46 111.81,51.46 20.21,0 36.14,-5.42 51.06,-19.08 20.72,-18.98 35.27,-41.63 44.9,-68.01l6.1 -16.73zm990.09 4.98l-80.15 0c-148.36,0 -238.71,-88.01 -238.71,-236.95l0 -825.63c0,-33.75 -4.47,-159.45 -41.2,-179.21 -4.75,-2.56 -11.05,-3.13 -16.33,-3.13 -17.84,0 -33.68,6.02 -48.65,15.51 -8.29,5.26 -22.15,13.9 -31.5,21.23 25.21,102.23 31.81,213.55 31.81,318.5l0 765.11c0,60.87 23.12,111.45 63.37,156.69 41.99,47.22 93.23,66.72 156.1,66.72 84.73,0 150.44,-38.4 205.27,-98.84zm7.68 -8.68c2.14,-2.49 4.27,-5.02 6.38,-7.56 68.78,-83.23 101.32,-177.66 101.32,-285.55l0 -337.17c0,-60.8 -9.36,-131.13 -47.8,-180.68 -28.55,-36.8 -63.7,-51.36 -110.02,-51.36 -52.28,0 -87.51,28.86 -116.58,70.5l-22.03 31.55c51.66,7.03 100.67,26.64 135.41,68.57 46.52,56.18 53.32,144.86 53.32,214.87l0 476.83zm591.56 -735.37c76.72,1.21 140.75,36.38 183.77,100.4 48.26,71.79 56.35,177.75 56.35,261.89 0,118.95 -0.71,396.9 -176.15,396.9 -184.8,0 -187.2,-290.64 -187.2,-416.35 0,-85.58 3.16,-210.31 38.43,-289.77 -28.51,21.99 -53.18,57.84 -68.65,83.41 -47.86,79.14 -57.25,198.32 -57.25,288.49 0,74.27 6.29,153.08 27.63,224.52 12.08,40.51 31.53,89.7 61.57,120.55 42.11,43.28 90.82,72.86 152.34,72.86 93.95,0 160.43,-49 213.54,-123.96 80.4,-113.5 97.91,-280.01 97.91,-415.01 0,-110.18 -10.19,-349.01 -123.47,-412.47 -24.35,-13.65 -51.76,-18.42 -79.42,-18.42 -20.03,0 -40.15,2.74 -58.88,10.07 -39.92,18.96 -61.78,49.45 -73.63,92.06l-6.9 24.83zm2460.57 816.57c-10.46,-46.06 -13.29,-95.45 -13.29,-140.89l0 -568.89 -3.34 -86.48 -16.7 -43.98c-23.82,-62.75 -58.01,-103.28 -128.57,-103.28 -66.08,0 -105.34,26.64 -132.48,86.68l-7.62 16.85c49.28,9.75 95.73,30.67 128.43,71.22 45.21,56.06 52.58,141.41 52.58,210.76l0 507.92c0,21.69 3.01,48.21 16.48,66.17 6.76,9 14.38,10.26 25.42,10.26 20.58,0 42.13,-3.21 59.97,-14.11 5.11,-3.13 12.52,-7.6 19.14,-12.22zm130.93 -840.1c48.48,9.88 93.68,31.18 126.05,71.33 45.21,56.06 52.58,141.4 52.58,210.75l0 417.14c0,34.82 4.07,140.39 40.03,161.92 7.16,4.3 16.7,5.3 24.86,5.3 14.01,0 25.63,-6.99 36.06,-15.86 9.98,-8.47 30.18,-25.55 37.37,-36.11l-30.61 -87.33 0 -598.51c0,-60.8 -9.37,-131.13 -47.8,-180.68 -24.24,-31.24 -52.19,-51.36 -92.54,-51.36 -31.54,0 -69.25,4.71 -94.33,25.83 -23.9,20.11 -40.64,44.09 -50.42,73.77l-1.26 3.82zm-582.14 13.96l-9.53 -50.67c-4.89,-26.02 -13.32,-75.35 -48.01,-75.35 -18.19,0 -34.43,5.77 -49.87,15.21 -7.95,4.84 -21.22,12.84 -30.21,19.58 25.17,102.16 31.75,213.4 31.75,318.3l0 548.98c0,20.82 2.64,49.2 15.87,66.44 6.79,8.83 15.1,9.99 26.03,9.99 23.98,0 45.59,-5.55 66.01,-18.18 2.59,-1.61 6.76,-4.33 11.02,-7.42 -10.63,-46.3 -13.05,-96.86 -13.05,-141.62l0 -685.25zm1528.04 286.84l0.02 383.14 -7.09 9.12 15.11 91.23c6.07,36.68 14.37,82.14 58.72,82.14 13.37,0 25.94,-8.21 35.83,-16.45 9.86,-8.2 29.65,-24.57 37.17,-34.95l-32.03 -87.25 0 -510.55c0,-81.48 -10.81,-182.84 -60.4,-250.81 -37.37,-51.19 -87.3,-69.85 -149.85,-69.85 -34.44,0 -66.78,7.41 -97.74,22.48 -29.33,14.26 -56.12,32.98 -77.35,57.93 -21.32,25.05 -39.57,52.48 -53.33,82.41 -3.12,6.82 -5.98,13.84 -8.41,21.01 33.94,-11.43 69.42,-18 106.17,-18 148.53,0 232.09,93.18 233.17,238.38zm-296.84 166.85c-52.55,40.32 -82.18,103.96 -82.18,201.31 0,52.94 8.43,111.32 39.85,155.48 22.83,32.11 53.54,41.99 92.2,41.99 35.27,0 60.68,-41.37 76.24,-75.26 -20.19,-1.1 -39.66,-6.64 -57.45,-16.41 -71.33,-35.85 -96.5,-109.61 -96.5,-185.77 0,-46.3 9.85,-86.75 27.84,-121.34zm-6410.92 -444.11c76.73,1.21 140.76,36.38 183.78,100.4 48.26,71.79 56.34,177.75 56.34,261.89 0,118.95 -0.71,396.9 -176.15,396.9 -184.78,0 -187.19,-290.65 -187.19,-416.35 0,-85.58 3.16,-210.31 38.43,-289.77 -28.51,21.99 -53.18,57.84 -68.65,83.41 -47.86,79.14 -57.25,198.32 -57.25,288.49 0,74.27 6.28,153.08 27.62,224.52 12.08,40.52 31.54,89.69 61.59,120.57 42.1,43.27 90.81,72.84 152.33,72.84 93.95,0 160.43,-49 213.54,-123.97 80.4,-113.49 97.92,-280 97.92,-415 0,-110.19 -10.2,-348.99 -123.47,-412.46 -24.35,-13.66 -51.77,-18.43 -79.44,-18.43 -20.03,0 -40.13,2.74 -58.87,10.07 -39.91,18.95 -61.79,49.44 -73.63,92.03l-6.91 24.86zm4342.92 816.57c-10.48,-46.06 -13.3,-95.45 -13.3,-140.89l0 -568.91 -3.31 -86.38 -16.74 -44.06c-23.82,-62.76 -58.01,-103.28 -128.56,-103.28 -66.07,0 -105.35,26.65 -132.49,86.68l-7.62 16.85c49.3,9.75 95.74,30.67 128.45,71.23 45.2,56.06 52.57,141.41 52.57,210.75l0 507.92c0,21.68 3,48.22 16.47,66.17 6.76,9 14.38,10.26 25.42,10.26 20.58,0 42.15,-3.21 59.98,-14.11 5.11,-3.12 12.52,-7.6 19.15,-12.22zm130.92 -840.11c48.47,9.89 93.66,31.19 126.04,71.33 45.21,56.07 52.59,141.39 52.59,210.76l0 417.14c0,34.82 4.07,140.39 40.03,161.92 7.17,4.3 16.69,5.3 24.87,5.3 14,0 25.62,-6.99 36.06,-15.85 9.97,-8.47 30.17,-25.55 37.36,-36.12l-30.62 -87.33 0 -598.51c0,-60.8 -9.36,-131.13 -47.8,-180.68 -24.23,-31.23 -52.18,-51.36 -92.52,-51.36 -31.55,0 -69.25,4.71 -94.33,25.83 -23.9,20.11 -40.66,44.1 -50.44,73.78l-1.25 3.8zm-582.14 14.06l-9.53 -50.78c-4.89,-26.02 -13.32,-75.33 -48.01,-75.33 -18.19,0 -34.44,5.77 -49.89,15.21 -7.94,4.84 -21.18,12.83 -30.18,19.57 25.15,102.19 31.75,213.4 31.75,318.31l0 548.98c0,20.81 2.64,49.22 15.85,66.44 6.8,8.84 15.09,9.99 26.03,9.99 23.99,0 45.61,-5.55 66.02,-18.18 2.59,-1.61 6.76,-4.33 11.01,-7.42 -10.62,-46.3 -13.04,-96.86 -13.04,-141.62l0 -685.16z"/>
   </g>
  </g>
 </g>
</svg>
